<svg width="200" height="200" viewBox="0 0 200 200" fill="none" xmlns="http://www.w3.org/2000/svg">
<path d="M183.667 28L167.383 130.617C166.76 134.535 164.76 138.103 161.741 140.679C158.723 143.254 154.885 144.668 150.917 144.667H49.75C45.7835 144.666 41.9472 143.251 38.9305 140.676C35.9138 138.101 33.9144 134.534 33.2917 130.617L17 28" stroke="black" stroke-width="12.5" stroke-linecap="round" stroke-linejoin="round"/>
<path d="M175.333 78C158.667 78 137.833 53 137.833 53C137.833 53 119.925 78 100.333 78C80.7418 78 62.8335 53 62.8335 53C62.8335 53 42.0002 78 25.3335 78" stroke="black" stroke-width="12.5" stroke-linecap="round" stroke-linejoin="round"/>
<rect x="40" y="159.333" width="120" height="12.5" rx="5" fill="black"/>
</svg>
